<svg width="23" height="42" viewBox="0 0 23 42" fill="none" xmlns="http://www.w3.org/2000/svg">
<path d="M22.5147 19.8475L2.81696 0.47495C2.17158 -0.159395 1.1267 -0.158329 0.482411 0.478232C-0.161383 1.11471 -0.15972 2.14576 0.485738 2.78059L19.0111 21.0001L0.485073 39.2195C-0.160302 39.8544 -0.161966 40.8848 0.481746 41.5213C0.804724 41.8404 1.22785 42 1.65097 42C2.07302 42 2.49448 41.8415 2.81687 41.5246L22.5147 22.1526C22.8256 21.8476 23 21.4325 23 21.0001C23 20.5676 22.8251 20.153 22.5147 19.8475Z" fill="white"/>
<path d="M22.5147 19.8475L2.81696 0.47495C2.17158 -0.159395 1.1267 -0.158329 0.482411 0.478232C-0.161383 1.11471 -0.15972 2.14576 0.485738 2.78059L19.0111 21.0001L0.485073 39.2195C-0.160302 39.8544 -0.161966 40.8848 0.481746 41.5213C0.804724 41.8404 1.22785 42 1.65097 42C2.07302 42 2.49448 41.8415 2.81687 41.5246L22.5147 22.1526C22.8256 21.8476 23 21.4325 23 21.0001C23 20.5676 22.8251 20.153 22.5147 19.8475Z" fill="white"/>
<path d="M22.5147 19.8475L2.81696 0.47495C2.17158 -0.159395 1.1267 -0.158329 0.482411 0.478232C-0.161383 1.11471 -0.15972 2.14576 0.485738 2.78059L19.0111 21.0001L0.485073 39.2195C-0.160302 39.8544 -0.161966 40.8848 0.481746 41.5213C0.804724 41.8404 1.22785 42 1.65097 42C2.07302 42 2.49448 41.8415 2.81687 41.5246L22.5147 22.1526C22.8256 21.8476 23 21.4325 23 21.0001C23 20.5676 22.8251 20.153 22.5147 19.8475Z" fill="white"/>
</svg>
